<?xml version="1.0" encoding="UTF-8"?>
<svg version="1.1" xmlns="http://www.w3.org/2000/svg" width="592" height="580">
<path d="M0 0 C195.36 0 390.72 0 592 0 C592 191.4 592 382.8 592 580 C396.64 580 201.28 580 0 580 C0 388.6 0 197.2 0 0 Z " fill="#FCFDFD" transform="translate(0,0)"/>
<path d="M0 0 C195.36 0 390.72 0 592 0 C592 191.4 592 382.8 592 580 C396.64 580 201.28 580 0 580 C0 388.6 0 197.2 0 0 Z M250 13 C249.01612305 13.17160645 248.03224609 13.34321289 247.01855469 13.52001953 C205.76746127 20.96757899 166.14173825 36.48729886 132 61 C131.15308594 61.60255615 131.15308594 61.60255615 130.2890625 62.21728516 C117.60961062 71.29005148 106.0747611 81.56718714 95.08789062 92.59643555 C93.37752221 94.30997312 91.65418179 96.00967768 89.9296875 97.70898438 C82.26492069 105.32993923 75.47205613 113.34839962 69 122 C68.11538086 123.17477905 68.11538086 123.17477905 67.21289062 124.37329102 C48.07349768 150.18199732 33.95738421 178.48444715 24 209 C23.56349121 210.32064453 23.56349121 210.32064453 23.11816406 211.66796875 C14.42068351 238.42629526 11.76695399 265.83697288 11.75 293.8125 C11.74932526 294.81477631 11.74865051 295.81705261 11.74795532 296.84970093 C11.76392458 311.79170378 12.22581888 326.27859594 15 341 C15.17692383 341.98081543 15.35384766 342.96163086 15.53613281 343.97216797 C20.07660596 368.75656411 27.59066975 392.59212562 38.25 415.4375 C38.72542236 416.45686646 38.72542236 416.45686646 39.21044922 417.49682617 C41.17110033 421.57920026 43.46736327 425.23650182 46 429 C47.00538718 430.99729733 48.00504094 432.99748746 49 435 C50.50646062 437.59795531 52.09033636 440.14451458 53.6875 442.6875 C54.12956787 443.39229492 54.57163574 444.09708984 55.02709961 444.82324219 C58.77293148 450.74048282 62.78906936 456.40443066 67 462 C67.81006386 463.112212 68.61859024 464.22554502 69.42578125 465.33984375 C70.24189871 466.45594039 71.05829934 467.57183004 71.875 468.6875 C72.61492187 469.70199219 73.35484375 470.71648437 74.1171875 471.76171875 C75.04917969 472.86966797 75.04917969 472.86966797 76 474 C76.66 474 77.32 474 78 474 C78.28875 474.598125 78.5775 475.19625 78.875 475.8125 C80.04742026 478.19327792 80.04742026 478.19327792 82 481 C82.66 481 83.32 481 84 481 C84.26103516 481.58555664 84.52207031 482.17111328 84.79101562 482.77441406 C86.07392143 485.13607992 87.45067091 486.70913291 89.34375 488.609375 C90.00858398 489.27807617 90.67341797 489.94677734 91.35839844 490.63574219 C92.41849121 491.6822998 92.41849121 491.6822998 93.5 492.75 C94.21961914 493.46575195 94.93923828 494.18150391 95.68066406 494.91894531 C100.24159798 499.40628281 104.85815235 503.58616994 109.984375 507.421875 C112 509 112 509 114.140625 511.203125 C115.8087402 513.23163932 115.8087402 513.23163932 118 513 C118 513.66 118 514.32 118 515 C119.57726876 516.36925748 119.57726876 516.36925748 121.6640625 517.72265625 C122.44918213 518.25656982 123.23430176 518.7904834 124.04321289 519.34057617 C124.89520264 519.90881104 125.74719238 520.4770459 126.625 521.0625 C127.49439209 521.64813721 128.36378418 522.23377441 129.25952148 522.8371582 C131.83433509 524.56626993 134.41620885 526.28434207 137 528 C137.98202393 528.65790527 137.98202393 528.65790527 138.98388672 529.32910156 C142.93804429 531.97397171 146.93679287 534.52736435 151 537 C151.63599121 537.38720215 152.27198242 537.7744043 152.92724609 538.17333984 C186.18092328 558.1287583 225.40981223 570.45687435 264 574 C264.86334961 574.0839502 265.72669922 574.16790039 266.61621094 574.25439453 C291.42714491 576.44821169 317.46796034 576.38384134 342 572 C343.09602539 571.80664062 344.19205078 571.61328125 345.32128906 571.4140625 C392.20256222 562.85898928 435.91246149 542.88931446 473 513 C473.96164062 512.24332031 474.92328125 511.48664063 475.9140625 510.70703125 C483.45321192 504.58025478 490.36566921 497.84475657 497.25 491 C498.17288818 490.08637695 499.09577637 489.17275391 500.04663086 488.23144531 C506.1217423 482.12851393 511.66742606 475.75827345 517 469 C517.48742676 468.39220703 517.97485352 467.78441406 518.47705078 467.15820312 C529.52833797 453.32992582 538.7129837 438.62505799 547 423 C547.35835937 422.32855957 547.71671875 421.65711914 548.0859375 420.96533203 C581.77364177 357.37345795 585.64338678 281.90028688 567.5 213.125 C567.22776611 212.08617676 566.95553223 211.04735352 566.67504883 209.97705078 C564.97721834 203.78508043 562.84740745 197.95185064 560.29833984 192.06103516 C558.9613936 188.90897951 557.76102147 185.72550805 556.5703125 182.515625 C554.09007309 176.02408647 551.11054246 169.89495081 547.875 163.75 C547.02240601 162.12384766 547.02240601 162.12384766 546.15258789 160.46484375 C541.26818715 151.27516636 535.90884393 142.55854068 530 134 C529.46890625 133.21995605 528.9378125 132.43991211 528.390625 131.63623047 C526.74992674 129.22932995 525.09697006 126.8314896 523.4375 124.4375 C522.92437256 123.69177734 522.41124512 122.94605469 521.88256836 122.17773438 C520.64010944 120.41421728 519.3264817 118.7012181 518 117 C517.34 117 516.68 117 516 117 C515.34 115.35 514.68 113.7 514 112 C513.34 112 512.68 112 512 112 C511.566875 111.1028125 511.566875 111.1028125 511.125 110.1875 C509.95257974 107.80672208 509.95257974 107.80672208 508 105 C507.34 105 506.68 105 506 105 C505.61521484 104.12214844 505.61521484 104.12214844 505.22265625 103.2265625 C503.89437838 100.80765392 502.43475199 99.26801128 500.4375 97.375 C497.09722222 94.19444444 497.09722222 94.19444444 496 92 C495.34 92 494.68 92 494 92 C494 91.34 494 90.68 494 90 C493.34 90 492.68 90 492 90 C492 89.34 492 88.68 492 88 C488.52001493 84.36366461 488.52001493 84.36366461 484 83 C484 82.34 484 81.68 484 81 C483.34 81 482.68 81 482 81 C482 80.34 482 79.68 482 79 C480.0803523 77.30564858 478.15568479 75.74024793 476.125 74.1875 C475.50149658 73.70611572 474.87799316 73.22473145 474.2355957 72.72875977 C472.16537685 71.14122784 470.08462848 69.5685564 468 68 C467.28859863 67.46310547 466.57719727 66.92621094 465.84423828 66.37304688 C455.30384461 58.46480606 444.5232491 51.38565999 433 45 C431.9169458 44.38777588 431.9169458 44.38777588 430.81201172 43.76318359 C407.28149634 30.51143433 381.84908907 21.24408113 355.4375 15.8125 C354.59774628 15.63879883 353.75799255 15.46509766 352.89279175 15.28613281 C339.94406825 12.62705424 327.2464523 10.32495757 314 10 C313.32215454 9.98257751 312.64430908 9.96515503 311.94592285 9.94720459 C291.15607453 9.4369792 270.54853497 9.39961567 250 13 Z " fill="#F5F5F5" transform="translate(0,0)"/>
<path d="M0 0 C1.03125 0.598125 2.0625 1.19625 3.125 1.8125 C12.20507606 8.72125352 18.23555908 17.45057477 20 29 C20.15519474 31.99658297 20.1674047 34.99006804 20.17700195 37.99023438 C20.18357315 38.88691833 20.19014435 39.78360229 20.19691467 40.7074585 C20.21659239 43.66955663 20.2283007 46.63160407 20.23828125 49.59375 C20.24235678 50.60999954 20.2464323 51.62624908 20.25063133 52.67329407 C20.27147293 58.05693354 20.28578045 63.4405477 20.29516602 68.82421875 C20.30619992 74.35736812 20.3405706 79.89011198 20.38033772 85.42311859 C20.40661535 89.70081273 20.41486793 93.97841208 20.41844749 98.25617981 C20.42328812 100.29412053 20.4348291 102.33205775 20.45348549 104.36991882 C20.59407116 120.75008042 19.49139088 134.41344863 8.0703125 147.15234375 C0.6514863 154.44888161 -8.29961175 158.16005329 -18.6875 158.625 C-25.87909552 158.30363643 -31.66253905 156.17399347 -36.9140625 151.1796875 C-38.93115137 148.89492807 -40.63576604 146.72846792 -42 144 C-43.97357036 143.81841962 -45.9560809 143.73142878 -47.9375 143.6875 C-57.42509423 143.08478317 -65.63743406 139.17411771 -72 132 C-76.52268965 125.5287047 -79 118.94869555 -79 111 C-79.969375 110.95875 -80.93875 110.9175 -81.9375 110.875 C-89.11776288 109.82848395 -95.35939212 104.54215246 -99.71484375 98.94921875 C-105.27928508 90.50953418 -106.68433544 80.90742286 -105 71 C-103.51591298 66.64078516 -101.75397818 62.70547429 -99 59 C-97.515 58.505 -97.515 58.505 -96 58 C-94.02 60.97 -92.04 63.94 -90 67 C-90.495 67.7425 -90.99 68.485 -91.5 69.25 C-94.22088169 74.74383767 -93.99125774 81.58940135 -92.30859375 87.37890625 C-89.47463352 93.62784784 -85.01079438 97.3755184 -78.625 99.8125 C-77.42875 100.204375 -76.2325 100.59625 -75 101 C-74.3652481 99.09703769 -74.3652481 99.09703769 -74 97 C-74.474375 96.38125 -74.94875 95.7625 -75.4375 95.125 C-77.52613219 92.28446023 -77.37467725 90.44703067 -77 87 C-75 85 -75 85 -72.125 84.625 C-69 85 -69 85 -66.625 86.875 C-65 89 -65 89 -65 91 C-60.41565583 93.36611312 -56.04348729 93.67602299 -51 93 C-47.48149976 91.82104963 -47.48149976 91.82104963 -45 89 C-43.64846174 85.73378254 -42.75059791 82.45011672 -42 79 C-42.825 79.103125 -43.65 79.20625 -44.5 79.3125 C-49.29816369 78.88409253 -52.35087704 77.09010838 -56 74 C-58.62135489 70.85144525 -59.88607554 67.846296 -60.4375 63.75 C-60 61 -60 61 -58.875 59.0625 C-57 58 -57 58 -54.125 57.8125 C-50.04216432 59.36397756 -49.08591321 61.43962868 -47.078125 65.1875 C-46.12385635 67.16310831 -46.12385635 67.16310831 -44 68 C-42.18185665 68.10642165 -40.36020414 68.15543575 -38.5390625 68.17578125 C-36.87037109 68.21155273 -36.87037109 68.21155273 -35.16796875 68.24804688 C-32.84522621 68.29030184 -30.52226066 68.3219305 -28.19921875 68.34179688 C-18.17863258 68.58858107 -8.99977299 70.62958567 -0.4375 76.0625 C0.34753906 76.54847656 1.13257813 77.03445312 1.94140625 77.53515625 C3.86484084 78.90382413 5.47354064 80.20043609 7 82 C7 82.66 7 83.32 7 84 C7.66 84 8.32 84 9 84 C8.96181695 76.57561167 8.90227405 69.15171042 8.81609726 61.72771454 C8.77673097 58.27972114 8.7444901 54.83197896 8.72900391 51.38378906 C8.71084338 47.41178185 8.66084425 43.44047054 8.609375 39.46875 C8.60814636 38.24136108 8.60691772 37.01397217 8.60565186 35.74938965 C8.45943289 27.14323116 7.14046726 20.56234265 0.8125 14.25 C-5.86913421 8.06382595 -12.21635197 6.5358607 -21.203125 6.76171875 C-23.86916718 6.98885363 -26.39134943 7.41448171 -29 8 C-29 8.66 -29 9.32 -29 10 C-34.41538462 11.23076923 -34.41538462 11.23076923 -37.375 10.0625 C-37.91125 9.711875 -38.4475 9.36125 -39 9 C-39.3125 6.25 -39.3125 6.25 -39 3 C-36.75 0.75 -36.75 0.75 -34 -1 C-33.401875 -1.391875 -32.80375 -1.78375 -32.1875 -2.1875 C-22.04998178 -5.95286391 -9.27182785 -5.45734877 0 0 Z " fill="#55A1CD" transform="translate(270,156)"/>
<path d="M0 0 C2.27604911 1.93413142 2.92367472 2.49116483 3.375 5.5 C3 8 3 8 1.875 9.875 C0 11 0 11 -2.75 10.875 C-6 10 -6 10 -9.3125 8.4375 C-15.42646188 6.05409113 -20.53711065 6.15050076 -26.625 8.625 C-34.26021739 12.4359462 -38.84756522 17.05111876 -42 25 C-43.01545766 28.04637299 -43.1541977 30.19777098 -43.20532227 33.3894043 C-43.22526749 34.49031906 -43.24521271 35.59123383 -43.26576233 36.72550964 C-43.28247482 37.91308365 -43.29918732 39.10065765 -43.31640625 40.32421875 C-43.3475779 42.14902519 -43.3475779 42.14902519 -43.37937927 44.01069641 C-43.44484717 47.90290596 -43.50374715 51.79518385 -43.5625 55.6875 C-43.60568782 58.32357482 -43.6493022 60.95964269 -43.69335938 63.59570312 C-43.80052578 70.06372951 -43.90229745 76.53182411 -44 83 C-43.34 83 -42.68 83 -42 83 C-41.505 81.515 -41.505 81.515 -41 80 C-34.91700606 75.22050476 -28.43078532 72.01250436 -21 70 C-20.01 69.67 -19.02 69.34 -18 69 C-15.97132198 68.86132363 -13.93888654 68.77491338 -11.90625 68.71875 C-10.71128906 68.68136719 -9.51632812 68.64398438 -8.28515625 68.60546875 C-5.76171875 68.53515625 -3.23828125 68.46484375 -0.71484375 68.39453125 C0.48011719 68.35714844 1.67507813 68.31976563 2.90625 68.28125 C4.00259766 68.25095703 5.09894531 68.22066406 6.22851562 68.18945312 C9.08658638 68.11046699 9.08658638 68.11046699 12 67 C12.71247732 65.3523962 13.37400383 63.68236471 14 62 C14.95824253 60.63634717 15.94721175 59.29205831 17 58 C22.75 58.75 22.75 58.75 25 61 C25.61018196 64.20345529 25.44927711 66.22835198 23.796875 69.06640625 C19.58437214 74.84264123 15.97220301 78.00412637 9 80 C5.9831543 80.25537109 5.9831543 80.25537109 2.82421875 80.2734375 C1.08688477 80.304375 1.08688477 80.304375 -0.68554688 80.3359375 C-3.09172638 80.3618522 -5.49800059 80.38015715 -7.90429688 80.390625 C-19.29822631 80.61812442 -27.83098565 83.87696509 -36 92 C-40.96093903 98.84339179 -43.12710373 104.31455606 -43.2109375 112.74609375 C-43.23904495 114.32227532 -43.26770957 115.89844703 -43.296875 117.47460938 C-43.33780144 119.94261989 -43.37470788 122.41045418 -43.40136719 124.87866211 C-43.61571407 143.16651657 -46.44356645 157.98764037 -59.53515625 171.7109375 C-69.22459343 180.70936886 -80.99178055 184.96457159 -94.1875 185.5 C-105.02178239 185.064305 -116.36728632 180.29764926 -124.82421875 173.54296875 C-126 172 -126 172 -125.75 168.375 C-125 165 -125 165 -124 164 C-117.852958 163.08448311 -114.52127355 165.12490855 -109.4296875 168.4921875 C-101.06086213 173.68570292 -89.49174525 173.50533223 -80.03515625 171.3125 C-77.83188843 170.3831779 -75.97525093 169.34333803 -74 168 C-73.3090625 167.57589844 -72.618125 167.15179688 -71.90625 166.71484375 C-63.14701751 160.84811901 -58.73909871 151.96464008 -56 142 C-55.49914286 138.08300641 -55.48391882 134.23795288 -55.53344727 130.29321289 C-55.53114105 129.17946793 -55.52883484 128.06572296 -55.52645874 126.91822815 C-55.52384449 124.5191543 -55.53019451 122.12005683 -55.54471016 119.72102547 C-55.56673974 115.91504031 -55.56283267 112.10984368 -55.55223083 108.30381775 C-55.53064607 98.85446895 -55.54738566 89.40531453 -55.57373047 79.95599365 C-55.59550641 71.95826929 -55.59700081 63.96107253 -55.57081413 55.96331596 C-55.56648684 52.22969029 -55.59103117 48.49696707 -55.61634827 44.76344299 C-55.61107356 42.45435189 -55.60434844 40.14526349 -55.59594727 37.83618164 C-55.618312 36.29979034 -55.618312 36.29979034 -55.64112854 34.73236084 C-55.53622489 23.95556707 -51.4394125 13.86250704 -44 6 C-32.43085871 -4.95755673 -14.05509019 -8.40494394 0 0 Z " fill="#61B2B4" transform="translate(356,156)"/>
<path d="M0 0 C8.2318189 4.8042356 12.96561702 10.87749412 15.6496582 19.94116211 C17.10369132 27.66102865 16.58872751 35.63619379 16.4765625 43.4609375 C16.4614901 45.29425985 16.44780621 47.12759418 16.43554688 48.9609375 C16.40273973 53.41957006 16.35109846 57.87761974 16.2890625 62.3359375 C15.6290625 62.3359375 14.9690625 62.3359375 14.2890625 62.3359375 C12.9450532 60.34309612 11.61364958 58.34174079 10.2890625 56.3359375 C9.43062744 55.57772705 8.57219238 54.8195166 7.68774414 54.03833008 C4.72775745 50.70356237 4.68499751 49.18064697 4.72265625 44.78515625 C4.71169922 43.52896484 4.70074219 42.27277344 4.68945312 40.97851562 C4.70169922 39.67333984 4.71394531 38.36816406 4.7265625 37.0234375 C5.09665931 23.83087427 5.09665931 23.83087427 -1.23291016 12.70385742 C-4.74552571 9.45291839 -8.07026232 8.97580888 -12.7734375 8.8359375 C-18.89858079 9.11887171 -22.67811065 10.24816938 -27.0234375 14.7109375 C-28.72579102 17.35904297 -29.35643952 19.23408021 -29.7109375 22.3359375 C-28.59138672 22.69751953 -28.59138672 22.69751953 -27.44921875 23.06640625 C-24.32791386 24.51351622 -22.98674352 25.94137415 -20.8984375 28.6484375 C-20.29386719 29.40769531 -19.68929687 30.16695312 -19.06640625 30.94921875 C-17.50959185 33.69046831 -17.34523959 35.23272949 -17.7109375 38.3359375 C-18.8984375 40.1484375 -18.8984375 40.1484375 -20.7109375 41.3359375 C-23.11328125 41.6796875 -23.11328125 41.6796875 -25.7109375 41.3359375 C-27.484375 39.47265625 -27.484375 39.47265625 -29.0859375 37.0234375 C-32.23104597 32.73097187 -34.3875517 30.66678395 -39.7109375 29.3359375 C-46.8242781 28.50409257 -52.87124326 28.93704118 -58.7109375 33.3359375 C-63.74065428 38.26681705 -65.86404935 41.51908481 -65.9609375 48.6484375 C-65.99960938 50.34419922 -65.99960938 50.34419922 -66.0390625 52.07421875 C-65.67958603 55.64758608 -64.8252082 57.47027158 -62.7109375 60.3359375 C-60.1286637 62.18041879 -58.2859926 62.39455059 -55.0859375 62.8359375 C-51.7109375 63.3359375 -51.7109375 63.3359375 -49.7109375 65.3359375 C-49.15139162 70.59566873 -49.15139162 70.59566873 -50.96875 73 C-53.69102316 75.08748301 -55.96050944 74.80255618 -59.2890625 74.69921875 C-64.13484674 73.97235111 -68.2645286 71.7823464 -71.7109375 68.3359375 C-76.62679462 68.3359375 -79.60619593 70.17409773 -83.09765625 73.40234375 C-86.85033797 77.90010997 -88.85012367 83.56722038 -89.2109375 89.3984375 C-88.27351591 96.78063256 -85.5362584 102.56976586 -79.7109375 107.3359375 C-77.63154099 108.72220184 -75.53144492 110.04405715 -73.3828125 111.3203125 C-71.7109375 112.3359375 -71.7109375 112.3359375 -70.7109375 113.3359375 C-70.4609375 116.2734375 -70.4609375 116.2734375 -70.7109375 119.3359375 C-74.03920255 121.55478087 -75.5796862 121.61680857 -79.4609375 120.99609375 C-88.21001772 118.42908931 -93.73091562 111.74825137 -97.96484375 104.05859375 C-101.71707534 95.99194952 -102.07420393 87.12352231 -99.5859375 78.5859375 C-96.32225061 70.31287074 -91.42125283 63.86704766 -83.7109375 59.3359375 C-82.05739381 58.63735645 -80.39301397 57.96270776 -78.7109375 57.3359375 C-78.76894531 56.36914062 -78.82695312 55.40234375 -78.88671875 54.40625 C-79.29731138 42.55771979 -76.75774963 34.86661034 -68.6015625 26.08984375 C-60.17593333 18.27350595 -51.89235524 17.01026514 -40.7109375 17.3359375 C-40.62714844 16.6140625 -40.54335937 15.8921875 -40.45703125 15.1484375 C-38.82339797 8.99023874 -33.33258883 4.28592609 -28.34765625 0.578125 C-19.45746419 -4.51445638 -9.20422433 -4.22734733 0 0 Z " fill="#82A9D7" transform="translate(274.7109375,103.6640625)"/>
<path d="M0 0 C0.66 0 1.32 0 2 0 C2.98163422 1.93625098 3.96022454 3.87404539 4.9375 5.8125 C5.48277344 6.89144531 6.02804687 7.97039062 6.58984375 9.08203125 C10.21337077 16.58002206 10.49662806 25.57038271 7.8359375 33.4453125 C6.3767499 36.43103482 4.80769933 39.21295044 3 42 C2.59394531 42.62648437 2.18789063 43.25296875 1.76953125 43.8984375 C-2.86446922 50.1298238 -9.63076179 53.31121624 -17 55 C-17.09796875 55.6290625 -17.1959375 56.258125 -17.296875 56.90625 C-18.82557962 65.6567661 -21.61923865 72.61923865 -28 79 C-30.90296598 80.87808373 -33.90181852 82.47030754 -37 84 C-37.62003906 84.37382812 -38.24007812 84.74765625 -38.87890625 85.1328125 C-41.75932299 86.31044144 -44.27434083 86.13222764 -47.375 86.125 C-52.05176103 86.29880907 -52.05176103 86.29880907 -55.8671875 88.6640625 C-56.79361295 90.06155174 -57.68443137 91.48326749 -58.5390625 92.92578125 C-61.75274369 97.48852112 -67.62130509 99.95074702 -73 101 C-80.38559744 102.00608758 -86.09454898 101.0201309 -92.6875 97.75 C-93.29964355 97.45029297 -93.91178711 97.15058594 -94.54248047 96.84179688 C-96.93712075 95.5604841 -98.70018614 94.60979091 -99.921875 92.125 C-100.02003407 89.45507325 -99.8471935 86.90713938 -99.5625 84.25 C-99.40974609 82.77273438 -99.40974609 82.77273438 -99.25390625 81.265625 C-99.17011719 80.51796875 -99.08632813 79.7703125 -99 79 C-98.49210937 79.39832031 -97.98421875 79.79664063 -97.4609375 80.20703125 C-89.26493395 86.51519128 -83.52768353 89.06718984 -73 88 C-68.68437815 86.53076126 -68.68437815 86.53076126 -65.87890625 83.171875 C-64.38283042 79.47490539 -64.30755588 75.90942411 -65 72 C-69.06189752 67.32266346 -75.11218664 65.35140046 -81.0625 64.125 C-85.45589073 63.10785312 -87.82346415 61.17653585 -91 58 C-92.20190901 54.39427296 -92.32670315 51.7897565 -92 48 C-89.80717579 44.47581824 -87.82574918 42.53869254 -84 41 C-79.08273268 40.65693484 -75.80875216 41.32603987 -72 44.5 C-71.34 45.325 -70.68 46.15 -70 47 C-69.505 47.495 -69.505 47.495 -69 48 C-68.979375 49.258125 -68.95875 50.51625 -68.9375 51.8125 C-68.77917269 54.0153529 -68.77917269 54.0153529 -68 56 C-66.13164246 57.34092646 -64.27208733 58.07870868 -62.140625 58.93359375 C-58.01437259 60.9891903 -55.04060924 64.91878152 -53 69 C-52.960008 70.99960012 -52.95653201 73.00047242 -53 75 C-45.20249196 74.62869009 -38.92008943 73.02974228 -33.32421875 67.27734375 C-29.39338752 61.88490767 -29.26660921 56.48527 -30 50 C-30.33 49.01 -30.66 48.02 -31 47 C-32.485 47.495 -32.485 47.495 -34 48 C-41.90801051 48.61294618 -49.53118018 49.14496833 -56 44 C-59.67465406 40.52308517 -62.62463055 36.95133001 -64 32 C-64 31.01 -64 30.02 -64 29 C-60.37 29 -56.74 29 -53 29 C-52.34 30.65 -51.68 32.3 -51 34 C-46.83632875 36.64960898 -41.78084856 36.69263177 -37 36 C-33.67632102 34.24409412 -31.48798633 32.54898462 -29 29.75 C-27 28 -27 28 -23.875 27.625 C-21 28 -21 28 -19 30 C-18.49901214 34.60908831 -19.18530564 36.45103755 -22 40 C-21.67 40.99 -21.34 41.98 -21 43 C-15.18883538 42.29561641 -10.65281086 39.74215199 -6.6875 35.5625 C-2.5538383 29.28545817 -2.29112314 23.35834144 -3 16 C-3.94163351 13.97186629 -4.92239692 11.95927833 -6 10 C-5.4375 8 -5.4375 8 -4 6 C-3.34 4.9275 -2.68 3.855 -2 2.75 C-1.34 1.8425 -0.68 0.935 0 0 Z " fill="#6DBAB1" transform="translate(417,213)"/>
<path d="M0 0 C4.29662544 3.5082538 6.02296043 6.8097946 7.8125 12 C8.31137035 13.40795285 8.81143792 14.8154819 9.3125 16.22265625 C9.57804687 16.98078613 9.84359375 17.73891602 10.1171875 18.52001953 C11.77805316 23.18569248 13.55081591 27.80917955 15.3125 32.4375 C15.66223877 33.36755859 16.01197754 34.29761719 16.37231445 35.25585938 C16.6993335 36.11888672 17.02635254 36.98191406 17.36328125 37.87109375 C17.80087769 39.03016235 17.80087769 39.03016235 18.24731445 40.21264648 C18.86292054 41.9886692 18.86292054 41.9886692 20 43 C20.43868408 41.8039917 20.87736816 40.6079834 21.3293457 39.37573242 C22.9591711 34.93902787 24.59987535 30.50641299 26.24389648 26.07495117 C26.95390435 24.1564538 27.66095746 22.23686021 28.36499023 20.31616211 C29.37749736 17.55549258 30.40056678 14.79894036 31.42578125 12.04296875 C31.73840408 11.18350143 32.05102692 10.32403412 32.37312317 9.43852234 C32.8232502 8.23761711 32.8232502 8.23761711 33.2824707 7.01245117 C33.54228226 6.3085173 33.80209381 5.60458344 34.06977844 4.87931824 C35.12457518 2.7483219 36.14020715 1.48051849 38 0 C41.9524723 -0.51235752 44.17912012 -0.48735464 47.63427734 1.56396484 C50.62848332 4.6471627 51.03431551 7.30610005 51.4765625 11.4140625 C51.57249191 12.13736252 51.66842133 12.86066254 51.76725769 13.60588074 C52.07320336 15.94351718 52.34914326 18.28364092 52.625 20.625 C52.82926618 22.22515631 53.03589337 23.82501299 53.24487305 25.42456055 C53.55364227 27.79064145 53.8608843 30.15678844 54.15965271 32.52415466 C55.05767246 39.62807546 56.24065376 46.66260664 57.51953125 53.70703125 C58.7215704 61.94539711 58.7215704 61.94539711 56.375 65.375 C53.32214079 67.46379841 51.63031776 67.54068562 48 67 C45.02829906 65.195753 44.2532958 62.5225342 43.40234375 59.23828125 C42.71423273 55.41024614 42.48725681 51.5501707 42.24609375 47.671875 C42.0930771 44.89942386 42.0930771 44.89942386 41 42 C40.61637228 39.43781486 40.26139695 36.88208247 39.9375 34.3125 C39.84662109 33.61060547 39.75574219 32.90871094 39.66210938 32.18554688 C39.43874006 30.45737377 39.21901504 28.72873033 39 27 C35.60455101 35.77449362 32.3569783 44.52474545 29.82543945 53.59375 C28.54092541 57.97507343 26.91293874 61.46819515 24 65 C21.78125 65.796875 21.78125 65.796875 19.5 65.75 C18.7471875 65.76546875 17.994375 65.7809375 17.21875 65.796875 C13.7643827 64.55622196 12.84587147 62.09972567 11 59 C10.07193978 56.67107842 9.22748657 54.30757618 8.45703125 51.921875 C8.24310226 51.26922668 8.02917328 50.61657837 7.8087616 49.94415283 C7.1346929 47.88212854 6.47319852 45.81634247 5.8125 43.75 C5.13843231 41.67032203 4.46181401 39.59149392 3.78410339 37.51300049 C3.17438796 35.63865831 2.57103753 33.76224917 1.96801758 31.88574219 C1.10834609 29.10041062 1.10834609 29.10041062 0 27 C-2.50789985 35.53114649 -2.97808885 44.25299044 -3.6796875 53.0859375 C-3.793125 54.30023438 -3.9065625 55.51453125 -4.0234375 56.765625 C-4.11544434 57.86680664 -4.20745117 58.96798828 -4.30224609 60.10253906 C-5.13324861 63.55332209 -6.20876323 64.85427272 -9 67 C-12.12446514 67.44635216 -14.03189946 67.68564297 -16.66015625 65.82421875 C-19.64676479 61.75790333 -18.36708414 55.78188271 -18 51 C-17.49497228 47.7259087 -16.91844218 44.48569733 -16.27880859 41.23632812 C-14.74211229 33.21785746 -13.95175295 25.1206356 -13.1784668 16.99731445 C-12.56828751 11.12027761 -11.86200336 6.21293469 -9 1 C-5.86128812 -0.56935594 -3.46144178 -0.35201103 0 0 Z " fill="#3494C6" transform="translate(112,390)"/>
<path d="M0 0 C11.07771031 -0.6959818 20.43963405 1.11033829 29.21875 8.234375 C35.97284674 14.92922528 40.31844691 23.35145043 40.51879883 32.86474609 C40.51259521 33.67250488 40.5063916 34.48026367 40.5 35.3125 C40.49572998 36.15119629 40.49145996 36.98989258 40.48706055 37.85400391 C40.25892288 46.16530885 37.94592712 51.61218381 32.5 57.875 C31.2625 58.926875 31.2625 58.926875 30 60 C29.2575 60.70125 28.515 61.4025 27.75 62.125 C22.21473099 65.89904705 15.6947808 67.9737863 9 67 C4.71505841 64.95917928 1.64956719 62.97435079 -1 59 C-1.60223579 55.58347006 -1.58884964 52.41859932 -1 49 C1.16636704 46.05133375 1.76536563 45.24363022 5 44 C8.07587096 43.6015066 11.1129488 43.4353093 14.2109375 43.30078125 C17.84563784 42.90880376 19.6397018 41.76724616 22 39 C23.19754817 35.40735548 23.33094958 32.77282526 23 29 C21.13291495 26.63502561 19.67938569 25.33969285 17 24 C11.08084337 23.35686161 11.08084337 23.35686161 6.0625 26.1875 C3.82398227 28.76677009 3.82398227 28.76677009 3.66796875 31.53125 C3 34 3 34 0.890625 35.30078125 C0.01921875 35.63464844 -0.8521875 35.96851563 -1.75 36.3125 C-7.16396498 38.76776023 -9.67703184 41.56513111 -12 47 C-12.85166887 49.80740127 -12.85166887 49.80740127 -13 52 C-19.36065079 52.4543322 -23.70847176 51.68254107 -29 48 C-32.85205761 44.44050373 -35.67471103 40.39131057 -36.18359375 35.0859375 C-36.31848565 30.84874503 -35.71782216 27.92645065 -34 24 C-32.9378125 24.04640625 -31.875625 24.0928125 -30.78125 24.140625 C-22.77111336 24.38490576 -16.91411015 24.52076433 -10 20 C-9.31421875 19.70867187 -8.6284375 19.41734375 -7.921875 19.1171875 C-3.63132549 16.62308758 -3.12337879 11.24416366 -1.875 6.75 C-1.52179688 5.48671875 -1.16859375 4.2234375 -0.8046875 2.921875 C-0.53914063 1.95765625 -0.27359375 0.9934375 0 0 Z " fill="#FAFCFC" transform="translate(239,236)"/>
<path d="M0 0 C3.0636803 0.97777031 4.07330426 1.39719329 5.9375 3.9375 C6.31845093 6.70776367 6.31845093 6.70776367 6.32568359 10.10546875 C6.33514008 11.37688721 6.34459656 12.64830566 6.3543396 13.95825195 C6.34896991 15.34717113 6.34281696 16.73608748 6.3359375 18.125 C6.33795839 19.54842274 6.34086995 20.97184447 6.34463501 22.39526367 C6.34905771 25.37786724 6.34262935 28.36020121 6.32861328 31.34277344 C6.31152103 35.16635091 6.32136255 38.98929666 6.33933067 42.81285095 C6.35017019 45.75196087 6.34672149 48.69092097 6.3389473 51.6300354 C6.33694573 53.03984654 6.33940306 54.44967128 6.34638596 55.85946655 C6.35400223 57.82948548 6.34033579 59.79955209 6.32568359 61.76953125 C6.32329681 62.89077393 6.32091003 64.0120166 6.31845093 65.16723633 C5.9375 67.9375 5.9375 67.9375 4.60073853 69.79956055 C2.00153522 71.5778599 -0.00584586 71.31958177 -3.0625 70.9375 C-4.9375 69.625 -4.9375 69.625 -6.0625 67.9375 C-6.0625 66.9475 -6.0625 65.9575 -6.0625 64.9375 C-6.53300781 65.28683594 -7.00351562 65.63617188 -7.48828125 65.99609375 C-8.11089844 66.45113281 -8.73351562 66.90617187 -9.375 67.375 C-9.98988281 67.82746094 -10.60476563 68.27992188 -11.23828125 68.74609375 C-16.47006929 72.16300029 -23.07909128 71.44395539 -29.0625 70.9375 C-35.385886 69.07305581 -39.91095078 63.6824898 -43.1015625 58.12890625 C-46.14279743 51.29323335 -46.32973626 43.77170202 -43.99609375 36.7109375 C-40.97863051 30.08402913 -37.53014563 25.42644316 -31.0625 21.9375 C-25.60157601 20.117192 -18.32871755 19.6333841 -12.91015625 21.796875 C-11.11691926 23.00698114 -9.59123281 24.40876719 -8.0625 25.9375 C-8.0531543 25.29200195 -8.04380859 24.64650391 -8.03417969 23.98144531 C-7.98040899 21.04936056 -7.8967766 18.11885992 -7.8125 15.1875 C-7.79832031 14.17171875 -7.78414063 13.1559375 -7.76953125 12.109375 C-7.52281066 4.60906902 -7.52281066 4.60906902 -5.20703125 1.23046875 C-3.0625 -0.0625 -3.0625 -0.0625 0 0 Z " fill="#3EA2D3" transform="translate(305.0625,386.0625)"/>
<path d="M0 0 C6.07126879 3.38095788 11.00701679 8.14416123 13.4375 14.78125 C14.52632212 16.85349944 14.52632212 16.85349944 17.2421875 17.1796875 C18.31726563 17.26476562 19.39234375 17.34984375 20.5 17.4375 C29.97048573 18.64226312 38.7201971 22.35304085 45.15625 29.609375 C51.55561852 38.11917357 53.04026402 45.94801986 51.625 56.5625 C49.12358977 64.72388085 44.81571863 68.92052521 37.75 73.375 C33.60383133 74.95054409 31.05312424 75.06244951 26.625 74.5625 C24.0625 72.875 24.0625 72.875 22.625 70.5625 C22.69457128 67.71007737 23.11650044 66.19695817 24.90234375 63.96875 C27.00006553 62.25632405 28.46546662 62.01949745 31.125 61.625 C34.7651528 60.93752936 34.7651528 60.93752936 37.625 58.625 C39.89631373 53.94041544 40.35506863 49.68127662 39.625 44.5625 C37.026059 38.27799181 32.43896595 33.35247075 26.26953125 30.45703125 C21.09875234 28.707979 15.45679621 28.49281644 10.30859375 30.4375 C5.4111372 33.26259827 2.60409349 36.81456975 -0.375 41.5625 C-2.7181213 41.30688677 -5.05343403 40.96979228 -7.375 40.5625 C-8.86231668 37.58786663 -8.8063052 35.88971157 -8.375 32.5625 C-5.74753015 28.03503567 -2.65607214 24.56855718 1.625 21.5625 C1.48710108 18.59767326 1.33555664 16.35015516 -0.70703125 14.0859375 C-6.34259385 9.39649125 -10.23007041 8.97333789 -17.375 9.5625 C-23.31280441 10.98265284 -26.30450447 14.27292767 -29.47216797 19.30566406 C-30.69841634 22.37095339 -30.56204293 24.9384195 -30.5078125 28.234375 C-30.51039063 29.53890625 -30.51296875 30.8434375 -30.515625 32.1875 C-30.51366773 34.24655311 -30.50021816 36.3027618 -30.45410156 38.36132812 C-30.22711172 49.86583784 -30.22711172 49.86583784 -33.17871094 54.22851562 C-35.15322173 56.17923714 -37.18536131 57.86422071 -39.375 59.5625 C-39.705 60.2225 -40.035 60.8825 -40.375 61.5625 C-41.035 61.5625 -41.695 61.5625 -42.375 61.5625 C-42.49945087 55.76423802 -42.58973829 49.96676903 -42.6496582 44.16748047 C-42.67466047 42.19859253 -42.708674 40.22979607 -42.75219727 38.26123047 C-43.03171341 25.28510433 -43.05395631 15.79173993 -34.0625 5.6875 C-24.6768738 -3.02038952 -11.72533654 -5.35254959 0 0 Z " fill="#90C194" transform="translate(342.375,103.4375)"/>
<path d="M0 0 C3.5625 0.25 3.5625 0.25 6.5625 2.25 C7.63745117 4.95556641 7.63745117 4.95556641 8.60546875 8.3515625 C8.95673828 9.56328125 9.30800781 10.775 9.66992188 12.0234375 C10.03018822 13.30722426 10.39021115 14.59107934 10.75 15.875 C11.12072631 17.16695935 11.49245941 18.45863026 11.86523438 19.75 C12.77428371 22.91396392 13.67288449 26.08052733 14.5625 29.25 C14.96082031 28.05503906 15.35914063 26.86007812 15.76953125 25.62890625 C18.95703125 16.06640625 18.95703125 16.06640625 19.76025391 13.67236328 C20.30624103 12.02376794 20.83929868 10.37084675 21.36083984 8.71435547 C21.61687988 7.9101416 21.87291992 7.10592773 22.13671875 6.27734375 C22.36319092 5.551521 22.58966309 4.82569824 22.82299805 4.07788086 C23.5625 2.25 23.5625 2.25 25.5625 0.25 C28.9439986 -0.06310172 31.52836228 -0.2533587 34.625 1.25390625 C37.51495843 4.23126262 38.16084753 7.54873883 39.1875 11.5 C39.39117187 12.23863281 39.59484375 12.97726562 39.8046875 13.73828125 C40.20806754 15.20441253 40.6043395 16.67251967 40.99316406 18.14257812 C41.52774169 20.12134059 42.1175175 22.08495583 42.7109375 24.046875 C43.5625 27.25 43.5625 27.25 43.5625 31.25 C44.2225 31.25 44.8825 31.25 45.5625 31.25 C45.645 30.198125 45.7275 29.14625 45.8125 28.0625 C46.43959696 22.95484072 48.01245977 18.20097919 49.5859375 13.31640625 C50.34731638 10.92567656 51.01589342 8.55626442 51.625 6.125 C53.06296339 1.7152456 53.06296339 1.7152456 55.5625 0.25 C59.00108351 -0.11841966 61.46381981 -0.33367385 64.5625 1.3125 C66.64533794 5.34799852 64.6328706 10.27302544 63.3190918 14.40942383 C62.80739672 15.92781689 62.28791648 17.44360292 61.76171875 18.95703125 C61.34524834 20.16693977 61.34524834 20.16693977 60.92036438 21.40129089 C60.33456815 23.09416887 59.74525094 24.78583217 59.15258789 26.47631836 C58.24840854 29.06706 57.36712938 31.66490368 56.48632812 34.26367188 C55.91284434 35.91194122 55.33802108 37.55974527 54.76171875 39.20703125 C54.37085335 40.37260307 54.37085335 40.37260307 53.97209167 41.5617218 C52.07209814 46.87542095 52.07209814 46.87542095 49.55004883 48.72924805 C46.6992873 49.47616788 44.49711621 49.61682703 41.5625 49.25 C38.14857011 46.46821963 36.85082622 44.01728307 35.640625 39.828125 C35.33769531 38.80332031 35.03476562 37.77851563 34.72265625 36.72265625 C34.42230469 35.65917969 34.12195313 34.59570312 33.8125 33.5 C33.49667969 32.42105469 33.18085938 31.34210938 32.85546875 30.23046875 C32.07952392 27.57344553 31.31570906 24.91354031 30.5625 22.25 C28.21792263 24.59457737 27.74254552 26.26779822 26.72265625 29.40625 C26.2112207 30.93958984 26.2112207 30.93958984 25.68945312 32.50390625 C24.98019602 34.66681506 24.27446122 36.8308821 23.57226562 38.99609375 C23.23001953 40.01832031 22.88777344 41.04054688 22.53515625 42.09375 C22.22843994 43.03412109 21.92172363 43.97449219 21.60571289 44.94335938 C20.5625 47.25 20.5625 47.25 17.5625 49.25 C14.125 49.6875 14.125 49.6875 10.5625 49.25 C6.96536108 45.63923556 5.44001103 41.72333075 4 36.9375 C3.57398703 35.59080677 3.14691458 34.2444482 2.71875 32.8984375 C2.3371875 31.69445312 1.955625 30.49046875 1.5625 29.25 C1.05636952 27.8487684 0.53913782 26.45136589 0 25.0625 C-6.26283482 8.57756696 -6.26283482 8.57756696 -5.4375 2.25 C-3.4375 0.25 -3.4375 0.25 0 0 Z " fill="#84BF6A" transform="translate(325.4375,407.75)"/>
<path d="M0 0 C-0.81731129 3.33605536 -1.78640259 6.59639394 -2.8125 9.875 C-4.30157751 14.6421906 -5.65010573 19.42488813 -6.9375 24.25 C-8.5833886 30.05256413 -10.68306271 34.97074768 -14 40 C-14.86625 41.36125 -14.86625 41.36125 -15.75 42.75 C-21.21067763 48.21067763 -28.95320916 51.78336237 -36.6484375 52.1953125 C-37.87820313 52.17210937 -39.10796875 52.14890625 -40.375 52.125 C-41.62023437 52.10695312 -42.86546875 52.08890625 -44.1484375 52.0703125 C-45.08945312 52.04710937 -46.03046875 52.02390625 -47 52 C-45.05672294 38.47085591 -32.6895083 24.99371914 -23 16 C-34.01791453 21.96231285 -41.93801218 29.83695935 -48.23388672 40.57958984 C-49.11369307 42.07865903 -50.05159159 43.54336377 -51 45 C-51.66 45 -52.32 45 -53 45 C-54.93421763 36.45200597 -55.31245059 26.86469354 -51 19 C-43.74430544 8.54607165 -33.6860106 3.24791042 -21.4453125 0.45703125 C-14.33151942 -0.48663518 -7.15825527 -0.21474766 0 0 Z " fill="#ABCB74" transform="translate(450,102)"/>
<path d="M0 0 C5.87297693 3.50317922 9.15869349 8.89475475 11.2265625 15.328125 C11.58387223 19.54437977 11.6865621 22.77479225 9.2265625 26.328125 C6.25296801 27.81492225 3.56357071 27.43925105 0.25 27.42578125 C-0.77787125 27.42365883 -0.77787125 27.42365883 -1.82650757 27.42149353 C-4.01719511 27.41589175 -6.2077808 27.40333906 -8.3984375 27.390625 C-9.88281102 27.38561022 -11.36718615 27.38104728 -12.8515625 27.37695312 C-16.49222065 27.36592177 -20.13281914 27.34865599 -23.7734375 27.328125 C-21.66017224 32.03655124 -21.66017224 32.03655124 -17.7734375 35.328125 C-15.20023402 35.64582049 -15.20023402 35.64582049 -12.3984375 35.578125 C-11.46257812 35.58328125 -10.52671875 35.5884375 -9.5625 35.59375 C-6.61308243 35.31285309 -4.49254732 34.46072018 -1.7734375 33.328125 C1.05688039 32.93545027 3.33060519 33.09075145 6.2265625 33.328125 C8.2265625 36.328125 8.2265625 36.328125 8.1640625 38.765625 C6.68096381 42.81942808 3.8521144 44.49589033 0.10546875 46.4140625 C-6.9499914 48.65419503 -16.46461586 48.7010639 -23.51953125 46.453125 C-25.56198623 45.24278131 -27.10515044 44.01334898 -28.7734375 42.328125 C-29.34320313 41.77382813 -29.91296875 41.21953125 -30.5 40.6484375 C-36.83248676 33.89578574 -37.23212013 26.97900548 -37.08203125 17.96484375 C-36.52095775 11.35269912 -34.2664535 7.47479751 -29.4609375 3.015625 C-20.39178497 -4.02111702 -10.37142373 -4.67537197 0 0 Z " fill="#93C36B" transform="translate(432.7734375,409.671875)"/>
<path d="M0 0 C4.75592836 2.72661306 7.46313691 6.06300243 9.640625 11.12890625 C10.0060047 14.01282774 10.18147251 16.49478781 10.13671875 19.36328125 C10.13817398 20.12312317 10.13962921 20.88296509 10.14112854 21.66583252 C10.13947916 23.25919461 10.12802641 24.85257424 10.10717773 26.44580078 C10.07803522 28.88642524 10.08662418 31.32489858 10.09960938 33.765625 C10.0933765 35.31902097 10.08498909 36.87241011 10.07421875 38.42578125 C10.07715439 39.15392029 10.08009003 39.88205933 10.08311462 40.63226318 C10.02827495 43.56317051 9.98554792 45.62722298 8.29711914 48.08300781 C5.63629691 49.76303175 3.70368896 49.56648682 0.640625 49.12890625 C-2.31041568 46.92428959 -3.26060425 45.75392113 -3.84179688 42.07617188 C-3.83728516 40.90763672 -3.83277344 39.73910156 -3.828125 38.53515625 C-3.84230469 37.25769531 -3.85648438 35.98023438 -3.87109375 34.6640625 C-3.86863567 32.64302738 -3.85934381 30.62208828 -3.85009766 28.60107422 C-3.84771439 26.64155644 -3.86887587 24.68205477 -3.890625 22.72265625 C-3.88611328 21.55412109 -3.88160156 20.38558594 -3.87695312 19.18164062 C-4.4560886 15.51690887 -5.45516147 14.36084813 -8.359375 12.12890625 C-10.56770833 11.50390625 -10.56770833 11.50390625 -12.859375 11.62890625 C-13.6121875 11.61859375 -14.365 11.60828125 -15.140625 11.59765625 C-18.26711908 12.34625342 -19.36751628 13.62262121 -21.359375 16.12890625 C-21.93590729 19.2494811 -21.93590729 19.2494811 -21.828125 22.72265625 C-21.84939453 24.63884766 -21.84939453 24.63884766 -21.87109375 26.59375 C-21.86945783 27.93880676 -21.86552858 29.28386257 -21.859375 30.62890625 C-21.84731126 33.26578655 -21.8613518 35.89790664 -21.890625 38.53515625 C-21.88611328 39.70369141 -21.88160156 40.87222656 -21.87695312 42.07617188 C-22.45814575 45.75392113 -23.40833432 46.92428959 -26.359375 49.12890625 C-29.421875 49.56640625 -29.421875 49.56640625 -32.359375 49.12890625 C-34.42741214 47.56497823 -35.2563892 46.68418131 -35.7335968 44.1111908 C-35.73296738 43.34222977 -35.73233795 42.57326874 -35.73168945 41.78100586 C-35.73791824 40.90677475 -35.74414703 40.03254364 -35.75056458 39.13182068 C-35.74135483 38.19113235 -35.73214508 37.25044403 -35.72265625 36.28125 C-35.72315475 35.31361221 -35.72365326 34.34597443 -35.72416687 33.34901428 C-35.72182644 31.30386297 -35.71209978 29.25870878 -35.69555664 27.21362305 C-35.6719404 24.07509759 -35.67499888 20.93741997 -35.68164062 17.79882812 C-35.67606478 15.813797 -35.66895549 13.82876946 -35.66015625 11.84375 C-35.66106766 10.90103745 -35.66197906 9.95832489 -35.66291809 8.98704529 C-35.65338608 8.11596634 -35.64385406 7.24488739 -35.6340332 6.34741211 C-35.62942581 5.57924667 -35.62481842 4.81108124 -35.62007141 4.01963806 C-35.359375 2.12890625 -35.359375 2.12890625 -33.359375 0.12890625 C-31.484375 -0.13671875 -31.484375 -0.13671875 -29.359375 -0.12109375 C-28.658125 -0.12625 -27.956875 -0.13140625 -27.234375 -0.13671875 C-25.359375 0.12890625 -25.359375 0.12890625 -23.359375 2.12890625 C-23.359375 3.11890625 -23.359375 4.10890625 -23.359375 5.12890625 C-22.88886719 4.77957031 -22.41835937 4.43023437 -21.93359375 4.0703125 C-21.31097656 3.61527344 -20.68835938 3.16023438 -20.046875 2.69140625 C-19.43199219 2.23894531 -18.81710938 1.78648437 -18.18359375 1.3203125 C-13.03635753 -2.04137283 -5.6624811 -2.09061802 0 0 Z " fill="#3D9DCD" transform="translate(241.359375,407.87109375)"/>
<path d="M0 0 C1.69172668 1.19233704 1.69172668 1.19233704 3 3 C3.39872742 5.41081238 3.39872742 5.41081238 3.43237305 8.29760742 C3.45216721 9.37850143 3.47196136 10.45939545 3.49235535 11.57304382 C3.49874527 12.73874405 3.50513519 13.90444427 3.51171875 15.10546875 C3.52966995 16.29981033 3.54762115 17.49415192 3.56611633 18.72468567 C3.62037033 22.54558768 3.65416429 26.36636371 3.6875 30.1875 C3.72065965 32.77540822 3.75514802 35.36329977 3.79101562 37.95117188 C3.87610557 44.30066828 3.94439153 50.65018069 4 57 C5.98 57.99 7.96 58.98 10 60 C10.29296875 66.0546875 10.29296875 66.0546875 10 68 C5.75259201 70.83160532 1.98653957 70.64522317 -3 70 C-7.15904003 67.66053998 -8.54265522 65.44429217 -10 61 C-10.26069641 58.2170105 -10.26069641 58.2170105 -10.2746582 55.15576172 C-10.28419022 54.00461884 -10.29372223 52.85347595 -10.30354309 51.66744995 C-10.30263168 50.43398834 -10.30172028 49.20052673 -10.30078125 47.9296875 C-10.30720894 46.01991623 -10.30720894 46.01991623 -10.31376648 44.07156372 C-10.3195046 41.38334293 -10.32095072 38.69550686 -10.31567383 36.00732422 C-10.30986315 32.56271372 -10.32685737 29.11863813 -10.3500185 25.67411613 C-10.36828026 22.38431033 -10.3645713 19.0945349 -10.36328125 15.8046875 C-10.372491 14.56717743 -10.38170074 13.32966736 -10.39118958 12.05465698 C-10.38496078 10.90981842 -10.37873199 9.76497986 -10.37231445 8.58544922 C-10.37294388 7.57682831 -10.3735733 6.5682074 -10.3742218 5.52902222 C-10 3 -10 3 -8.69548035 1.17434692 C-5.85231423 -0.79492591 -3.33259137 -0.35706336 0 0 Z " fill="#9EC76D" transform="translate(462,387)"/>
<path d="M0 0 C1.69172668 1.19233704 1.69172668 1.19233704 3 3 C3.39872742 5.41081238 3.39872742 5.41081238 3.43237305 8.29760742 C3.45216721 9.37850143 3.47196136 10.45939545 3.49235535 11.57304382 C3.49874527 12.73874405 3.50513519 13.90444427 3.51171875 15.10546875 C3.52966995 16.29981033 3.54762115 17.49415192 3.56611633 18.72468567 C3.62037033 22.54558768 3.65416429 26.36636371 3.6875 30.1875 C3.72065965 32.77540822 3.75514802 35.36329977 3.79101562 37.95117188 C3.87610557 44.30066828 3.94439153 50.65018069 4 57 C5.98 57.99 7.96 58.98 10 60 C10.47952345 66.35368578 10.47952345 66.35368578 8.5625 68.9375 C4.68817426 70.54392774 1.1283238 70.67085262 -3 70 C-6.6025266 67.85381394 -8.45943622 65.85597452 -10 62 C-10.26069641 59.29930115 -10.26069641 59.29930115 -10.2746582 56.17749023 C-10.28419022 55.00625107 -10.29372223 53.8350119 -10.30354309 52.62828064 C-10.30263168 51.36778397 -10.30172028 50.10728729 -10.30078125 48.80859375 C-10.30506638 47.51180191 -10.3093515 46.21501007 -10.31376648 44.87892151 C-10.32121756 42.13774521 -10.32094477 39.39669775 -10.31567383 36.65551758 C-10.30986904 33.14250082 -10.32683911 29.63000956 -10.3500185 26.11707973 C-10.36828358 22.76422864 -10.3645711 19.41149439 -10.36328125 16.05859375 C-10.372491 14.79607285 -10.38170074 13.53355194 -10.39118958 12.23277283 C-10.38496078 11.06468582 -10.37873199 9.89659882 -10.37231445 8.69311523 C-10.37294388 7.66371323 -10.3735733 6.63431122 -10.3742218 5.57371521 C-10 3 -10 3 -8.69548035 1.1676178 C-5.85015778 -0.79185597 -3.32959524 -0.35674235 0 0 Z " fill="#AACE6E" transform="translate(489,387)"/>
<path d="M0 0 C4.20666851 0.72807724 5.37478091 2.39690179 7.953125 5.640625 C11.36537375 10.69733098 11.86495604 14.54188198 11.25 20.5625 C9.94491841 27.09977232 6.71180792 30.87431143 1.25 34.5625 C-3.68934438 37.59251798 -9.14310423 37.18466545 -14.75 36.5625 C-16.73828125 35.734375 -16.73828125 35.734375 -18.375 34.6875 C-21.63169386 32.63698905 -23.20006162 32.18164508 -26.875 31.625 C-31.54845045 30.83542161 -33.78181244 29.39241943 -36.75 25.5625 C-38.22896861 22.60456277 -38.1855582 20.86029776 -37.75 17.5625 C-35.61259835 14.33995598 -33.24332012 11.30916006 -29.75 9.5625 C-24.47274989 8.96281249 -21.86292798 10.29085275 -17.75 13.5625 C-15.75 16.5625 -15.75 16.5625 -14.75 20.1875 C-14.42 21.30125 -14.09 22.415 -13.75 23.5625 C-10.94084526 24.96707737 -8.86189466 24.81145157 -5.75 24.5625 C-3.23130668 23.79858998 -3.23130668 23.79858998 -1.75 21.5625 C-1.06292262 17.48635552 -0.86838189 13.84819308 -3.25 10.375 C-3.745 9.776875 -4.24 9.17875 -4.75 8.5625 C-5.0625 5.4375 -5.0625 5.4375 -4.75 2.5625 C-2.75 0.5625 -2.75 0.5625 0 0 Z " fill="#76AAD5" transform="translate(250.75,173.4375)"/>
<path d="M0 0 C2 2 2 2 2.375 4.8125 C1.91688899 8.70644363 0.40689986 9.99137517 -2 13 C-2.47996202 16.91968986 -2.20832699 19.68750952 0 23 C3.01868434 24.50934217 5.67297229 24.17510672 9 24 C12.41853494 22.21890359 12.41853494 22.21890359 12.875 18.125 C13.56377441 15.09439259 14.01167804 13.9858448 16.0625 11.5 C20.11176408 9.43229068 23.53880274 9.17564833 28 10 C30.87029869 11.79393668 32.49131638 12.98263276 34 16 C34.57791538 23.0505676 34.57791538 23.0505676 32.25 26.875 C28.86203138 30.07474814 26.56976108 30.98898641 22 31.4375 C18.48759395 31.79590878 16.68105887 32.61683656 14 35 C8.4167827 36.86107243 2.87045437 36.52996207 -2.75 34.9375 C-8.38441893 31.57851948 -11.92960206 27.23929876 -14 21 C-14.96968448 14.84623313 -14.57595907 10.14402531 -11.125 4.875 C-7.75622534 0.30192908 -5.72188874 -0.35761805 0 0 Z " fill="#7ABDA6" transform="translate(343,174)"/>
<path d="M0 0 C6.94490608 1.89406529 11.36424635 7.54077092 14.8125 13.5625 C19.19219323 22.12019007 20.34255224 29.67412076 17.875 39.0625 C14.72272359 48.41669697 8.54430432 56.13525335 0.015625 61.171875 C-3.45981147 62.5997675 -6.26419728 62.30127441 -10 62 C-12 59 -12 59 -11.9375 56.5625 C-10.2651611 51.99144033 -6.71001504 50.35500752 -2.5 48.25 C1.87401035 45.73279054 4.36360614 42.80104983 6 38 C7.10362901 29.87083021 6.95759956 22.70638047 2.3828125 15.7265625 C0.91877855 13.82597338 0.91877855 13.82597338 -1.375 11.6875 C-1.91125 11.130625 -2.4475 10.57375 -3 10 C-2.875 8.125 -2.875 8.125 -2 6 C-1.649375 4.9275 -1.29875 3.855 -0.9375 2.75 C-0.628125 1.8425 -0.31875 0.935 0 0 Z " fill="#8DC293" transform="translate(398,163)"/>
<path d="M0 0 C2.64135176 2.64135176 2.28652037 4.07158721 2.4375 7.75 C2.76180537 12.4950996 3.25191853 15.98357324 6 20 C10.01428867 22.67619245 13.28126492 22.81414795 18 22 C21.07211329 19.6625225 22.66085238 17.62177064 24.5 14.25 C26 12 26 12 28.4375 11 C31 11 31 11 33.3125 12 C35 14 35 14 35.625 17.125 C34.66256743 23.09208191 31.88867581 27.49915566 27.3125 31.4609375 C21.27567387 35.12987062 13.81051213 34.8769917 7 34 C-1.74147932 30.17756101 -5.27263725 25.58727034 -9 17 C-10.01078814 13.96763557 -10.2313039 11.67946833 -10.3125 8.5 C-10.34988281 7.5409375 -10.38726562 6.581875 -10.42578125 5.59375 C-10 3 -10 3 -8.17578125 1.17578125 C-5.28465282 -0.38657002 -3.23732324 -0.35188296 0 0 Z " fill="#64B9BC" transform="translate(296,337)"/>
<path d="M0 0 C3 2 3 2 3.38768005 3.89073181 C3.39308304 4.65889725 3.39848602 5.42706268 3.40405273 6.21850586 C3.41673691 7.08958481 3.42942108 7.96066376 3.44248962 8.85813904 C3.43808617 10.27220787 3.43808617 10.27220787 3.43359375 11.71484375 C3.4388356 12.68152481 3.44407745 13.64820587 3.44947815 14.6441803 C3.45590907 16.69108112 3.45454757 18.73801885 3.44604492 20.78491211 C3.43754274 23.92172959 3.46626912 27.05672238 3.49804688 30.19335938 C3.49965908 32.17968695 3.49908099 34.16601776 3.49609375 36.15234375 C3.51294472 37.56337624 3.51294472 37.56337624 3.53013611 39.00291443 C3.46087304 45.45769006 3.46087304 45.45769006 1.19555664 48.12329102 C-2.15286128 49.4603497 -4.56906718 48.8895011 -8 48 C-10.04095254 44.93857118 -10.25288947 44.30258504 -10.2746582 40.8515625 C-10.28419022 40.02060059 -10.29372223 39.18963867 -10.30354309 38.33349609 C-10.30263168 37.43969238 -10.30172028 36.54588867 -10.30078125 35.625 C-10.30506638 34.70412598 -10.3093515 33.78325195 -10.31376648 32.83447266 C-10.31950889 30.88770368 -10.3200107 28.94091324 -10.31567383 26.99414062 C-10.31251203 24.01134793 -10.33598035 21.02954517 -10.36132812 18.046875 C-10.36360089 16.15625125 -10.36430472 14.26562484 -10.36328125 12.375 C-10.372491 11.48119629 -10.38170074 10.58739258 -10.39118958 9.66650391 C-10.38496078 8.83554199 -10.37873199 8.00458008 -10.37231445 7.1484375 C-10.37294388 6.41802246 -10.3735733 5.68760742 -10.3742218 4.93505859 C-9.28053532 -0.72027047 -4.90077207 -0.43756894 0 0 Z " fill="#3C99CA" transform="translate(190,408)"/>
<path d="M0 0 C4.09199196 2.08319591 6.30799578 3.75850526 8 8 C8.70439351 12.96351704 8.53310707 16.91404116 6.3125 21.4375 C2.68795915 25.45388311 0.48604131 26.81129634 -4.9375 27.5 C-9.72261037 27.31004288 -11.77886228 25.45121898 -15 22 C-17.56171604 17.80810102 -17.96141818 12.77450046 -17 8 C-12.69291652 0.89199106 -8.11611209 -0.99575829 0 0 Z " fill="#F7FCFC" transform="translate(290,419)"/>
<path d="M0 0 C0.99 0.495 0.99 0.495 2 1 C0.72322388 2.25321045 0.72322388 2.25321045 -0.5793457 3.53173828 C-3.79863285 6.6958642 -7.00727348 9.8706166 -10.21313477 13.04833984 C-11.59022859 14.41054011 -12.97002492 15.77001488 -14.3527832 17.12646484 C-23.3215762 25.92910875 -31.5205256 34.89695365 -39 45 C-39.58676514 45.78036621 -40.17353027 46.56073242 -40.77807617 47.36474609 C-57.72663355 70.17809494 -71.12293907 95.35792775 -81 122 C-81.66 121.67 -82.32 121.34 -83 121 C-71.91494528 91.74928909 -57.94417075 65.32726348 -38.43847656 40.80859375 C-37.19538711 39.24565983 -35.96735006 37.67077585 -34.7421875 36.09375 C-24.37394539 23.0053227 -12.54438311 11.00009352 0 0 Z " fill="#DFE0E0" transform="translate(109,77)"/>
<path d="M0 0 C2.5 1.625 2.5 1.625 4 4 C4 7.75343683 3.82004247 10.02225706 1.375 12.9375 C-2.01168643 14.45259656 -4.33417263 14.52368962 -8 14 C-10.5 11.9375 -10.5 11.9375 -12 9 C-12 5.19715329 -11.7968187 2.98069994 -9.375 0 C-5.87599825 -1.47326389 -3.62561724 -0.97114747 0 0 Z " fill="#3B98CE" transform="translate(191,387)"/>
<path d="M0 0 C2.83618718 1.36495004 3.89532065 2.50761656 6 5 C6 6.65 6 8.3 6 10 C-1.59 10 -9.18 10 -17 10 C-13.92594156 0.77782467 -9.45292604 -1.7488667 0 0 Z " fill="#F8FBF6" transform="translate(425,418)"/>
<path d="M0 0 C0.66 0.33 1.32 0.66 2 1 C-5.92 8.92 -13.84 16.84 -22 25 C-22 19.99903004 -18.38372661 17.45098723 -15 14 C-10.0768399 9.2514295 -5.04626628 4.61706601 0 0 Z " fill="#E8E9E9" transform="translate(109,77)"/>
<path d="M0 0 C0.66 0.33 1.32 0.66 2 1 C1.53851563 1.32871094 1.07703125 1.65742188 0.6015625 1.99609375 C-5.28481711 6.28873026 -10.6474838 11.06427809 -16 16 C-16 11.99575048 -14.58236722 10.76167518 -11.9921875 7.85546875 C-8.47099266 4.57592453 -4.39467423 1.9602144 0 0 Z " fill="#7EBFA8" transform="translate(324,154)"/>
<path d="M0 0 C0.66 0 1.32 0 2 0 C0.72879892 7.94500676 -5.07435244 14.01126181 -11 19 C-11.99 19.33 -12.98 19.66 -14 20 C-12.90767901 16.72303703 -12.45998289 16.41694126 -9.8125 14.5 C-5.02928234 10.60622364 -2.65466189 5.46490836 0 0 Z " fill="#4CAFC7" transform="translate(298,305)"/>
<path d="M0 0 C2.74277578 3.19990508 4.6302836 6.00499382 6 10 C2.66282451 8.6190998 0.77698964 7.1798762 -1 4 C-0.6875 1.75 -0.6875 1.75 0 0 Z " fill="#3A9AC7" transform="translate(170,249)"/>
<path d="M0 0 C1.1484375 3.6875 1.1484375 3.6875 -0.1875 6.5 C-1.95012332 8.93120457 -3.80524341 10.95660593 -6 13 C-6.99 12.67 -7.98 12.34 -9 12 C-8.2575 11.505 -7.515 11.01 -6.75 10.5 C-3.34137326 7.40124842 -1.81273937 4.17233866 0 0 Z " fill="#84C6A3" transform="translate(414,241)"/>
<path d="M0 0 C0.66 0 1.32 0 2 0 C2.66 1.65 3.32 3.3 4 5 C3.01 4.67 2.02 4.34 1 4 C-0.90801574 5.20129367 -0.90801574 5.20129367 -2.6875 6.9375 C-3.62142578 7.78634766 -3.62142578 7.78634766 -4.57421875 8.65234375 C-5.27998047 9.31943359 -5.27998047 9.31943359 -6 10 C-4.26978364 6.44687712 -2.32923059 3.20269206 0 0 Z " fill="#8FC79C" transform="translate(417,213)"/>
<path d="M0 0 C0.33 0.66 0.66 1.32 1 2 C0.67 2.66 0.34 3.32 0 4 C2.97 4.495 2.97 4.495 6 5 C6 5.33 6 5.66 6 6 C3.03 6 0.06 6 -3 6 C-2.625 3.5625 -2.625 3.5625 -2 1 C-1.34 0.67 -0.68 0.34 0 0 Z " fill="#9AC684" transform="translate(406,148)"/>
<path d="M0 0 C0.99 0.33 1.98 0.66 3 1 C2.360625 1.598125 1.72125 2.19625 1.0625 2.8125 C-1.20310389 4.90810337 -1.20310389 4.90810337 -2 8 C-2.66 8 -3.32 8 -4 8 C-3.50168276 4.31245243 -2.89932357 2.39509338 0 0 Z " fill="#8CC5A3" transform="translate(390,214)"/>
<path d="M0 0 C1.32 0.33 2.64 0.66 4 1 C3.21625 1.598125 2.4325 2.19625 1.625 2.8125 C-1.14574323 4.91085249 -1.14574323 4.91085249 -3 8 C-3.66 7.67 -4.32 7.34 -5 7 C-3.35 4.69 -1.7 2.38 0 0 Z " fill="#8ECBB7" transform="translate(373,214)"/>
<path d="M0 0 C2.31 0 4.62 0 7 0 C7.33 0.66 7.66 1.32 8 2 C6.88625 1.9071875 6.88625 1.9071875 5.75 1.8125 C2.54616994 2.03094296 1.35968744 2.90250005 -1 5 C-0.67 3.35 -0.34 1.7 0 0 Z " fill="#339BCB" transform="translate(232,320)"/>
<path d="M0 0 C-1.39332574 3.36720387 -2.9789286 4.9859524 -6 7 C-6 5.35 -6 3.7 -6 2 C-2.25 0 -2.25 0 0 0 Z " fill="#82BFA0" transform="translate(307,157)"/>
<path d="M0 0 C1.32 0.33 2.64 0.66 4 1 C1.69 2.65 -0.62 4.3 -3 6 C-3.66 5.67 -4.32 5.34 -5 5 C-2.75 2.4375 -2.75 2.4375 0 0 Z " fill="#7AC2AA" transform="translate(390,241)"/>
</svg>
